<?xml version="1.0" encoding="utf-8"?>
<!-- Generator: Adobe Illustrator 14.0.0, SVG Export Plug-In . SVG Version: 6.00 Build 43363)  -->
<!DOCTYPE svg PUBLIC "-//W3C//DTD SVG 1.1//EN" "http://www.w3.org/Graphics/SVG/1.1/DTD/svg11.dtd">
<svg version="1.1" id="Layer_1" xmlns="http://www.w3.org/2000/svg" xmlns:xlink="http://www.w3.org/1999/xlink" x="0px" y="0px"
	 width="40px" height="40px" viewBox="0 0 40 40" enable-background="new 0 0 40 40" xml:space="preserve">
<g>
	<path fill="#D9C694" d="M17.724,8.944c-0.032-2.123-1.765-3.841-3.895-3.841H7.006c-2.149,0-3.898,1.749-3.898,3.898v3.446
		c0,1.845,1.291,3.393,3.017,3.793v2.835c0,0.691,0.562,1.253,1.252,1.253c0.372,0,0.703-0.167,0.933-0.424h0l2.167-2.567v-0.757
		C10.476,12.496,13.692,9.158,17.724,8.944z"/>
	<path fill="#D9C694" d="M30.618,10.341H18.121c-0.132,0-0.263-0.014-0.394-0.006c-3.265,0.211-5.859,2.927-5.859,6.245v5.744
		c0,3.454,2.811,6.265,6.265,6.265l1.061,0.026h3.901l4.794,5.683h0.001c0.313,0.363,0.771,0.599,1.288,0.599
		c0.943,0,1.708-0.767,1.708-1.709c0-0.012-0.002-0.021-0.002-0.031v-4.555c3.33-0.142,5.998-2.889,5.998-6.252v-5.744
		C36.883,13.152,34.073,10.341,30.618,10.341z M19.79,21.149c-0.92,0-1.669-0.75-1.669-1.672c0-0.921,0.75-1.67,1.669-1.67
		c0.923,0,1.671,0.75,1.671,1.67C21.462,20.399,20.712,21.149,19.79,21.149z M24.37,21.149c-0.922,0-1.67-0.75-1.67-1.672
		c0-0.921,0.748-1.67,1.67-1.67c0.921,0,1.671,0.75,1.671,1.67C26.041,20.399,25.292,21.149,24.37,21.149z M28.95,21.149
		c-0.92,0-1.67-0.75-1.67-1.672c0-0.921,0.75-1.67,1.67-1.67c0.922,0,1.672,0.75,1.672,1.67
		C30.622,20.399,29.872,21.149,28.95,21.149z"/>
</g>
</svg>
