<?xml version="1.0" encoding="utf-8"?>
<!-- Generator: Adobe Illustrator 14.0.0, SVG Export Plug-In . SVG Version: 6.00 Build 43363)  -->
<!DOCTYPE svg PUBLIC "-//W3C//DTD SVG 1.1//EN" "http://www.w3.org/Graphics/SVG/1.1/DTD/svg11.dtd">
<svg version="1.1" id="Layer_1" xmlns="http://www.w3.org/2000/svg" xmlns:xlink="http://www.w3.org/1999/xlink" x="0px" y="0px"
	 width="46.766px" height="84.528px" viewBox="0 0 46.766 84.528" enable-background="new 0 0 46.766 84.528" xml:space="preserve">
<g>
	<polygon fill="#FFFFFF" points="4.5,80.028 42.265,42.264 4.5,4.499 	"/>
	<path fill="#FFFFFF" d="M4.499,84.528c-0.58,0-1.165-0.112-1.721-0.343C1.096,83.489,0,81.849,0,80.028V4.499
		c0-1.82,1.096-3.461,2.778-4.157C4.46-0.354,6.396,0.03,7.682,1.317l37.765,37.765c0.844,0.844,1.318,1.988,1.318,3.182
		s-0.474,2.338-1.318,3.182L7.682,83.21C6.821,84.071,5.67,84.528,4.499,84.528L4.499,84.528z M9,15.363v53.801l26.901-26.9
		L9,15.363L9,15.363z"/>
</g>
</svg>
