<?xml version="1.0" encoding="utf-8"?>
<!-- Generator: Adobe Illustrator 14.0.0, SVG Export Plug-In . SVG Version: 6.00 Build 43363)  -->
<!DOCTYPE svg PUBLIC "-//W3C//DTD SVG 1.1//EN" "http://www.w3.org/Graphics/SVG/1.1/DTD/svg11.dtd">
<svg version="1.1" id="Layer_2" xmlns="http://www.w3.org/2000/svg" xmlns:xlink="http://www.w3.org/1999/xlink" x="0px" y="0px"
	 width="238.604px" height="80px" viewBox="0 0 238.604 80" enable-background="new 0 0 238.604 80" xml:space="preserve">
<g>
	<g>
		<g>
			<g>
				<path d="M192.59,33.156c0-0.186,0.166-0.354,0.354-0.354h2.049c0.185,0,0.354,0.168,0.354,0.354v12.327
					c0,0.187-0.169,0.354-0.354,0.354h-2.049c-0.188,0-0.354-0.168-0.354-0.354V33.156z"/>
				<path d="M207.579,42.858v-1.974l6.501-7.803c0.055-0.056,0.11-0.111,0.279-0.111h1.34c0.187,0,0.354,0.148,0.354,0.354
					l0.018,7.635h1.472c0.206,0,0.354,0.149,0.354,0.335v1.546c0,0.186-0.147,0.354-0.354,0.354h-1.472l0.021,2.29
					c0,0.187-0.168,0.354-0.355,0.354h-1.991c-0.187,0-0.355-0.168-0.355-0.354v-2.271h-5.453
					C207.729,43.212,207.579,43.045,207.579,42.858z M213.465,40.903v-3.464l-2.961,3.464H213.465z"/>
				<path d="M229.068,39.506c0-4.079,1.732-6.518,4.768-6.518c3.036,0,4.769,2.439,4.769,6.518c0,4.078-1.732,6.518-4.769,6.518
					C230.801,46.024,229.068,43.584,229.068,39.506z M235.605,39.506c0-2.439-0.633-3.817-1.77-3.817
					c-1.134,0-1.77,1.378-1.77,3.817c0,2.458,0.636,3.818,1.77,3.818C234.973,43.324,235.605,41.964,235.605,39.506z"/>
			</g>
		</g>
		<g>
			<g>
				<path d="M6.723,32.616c1.862,0,3.24,0.578,4.505,1.732c0.167,0.149,0.167,0.373,0.019,0.521l-1.452,1.508
					c-0.13,0.131-0.335,0.131-0.465,0c-0.689-0.614-1.602-0.95-2.515-0.95c-2.104,0-3.649,1.751-3.649,3.836
					c0,2.068,1.563,3.782,3.668,3.782c0.876,0,1.825-0.317,2.496-0.896c0.13-0.111,0.372-0.111,0.484,0.02l1.453,1.546
					c0.129,0.129,0.111,0.371-0.02,0.502c-1.266,1.23-2.866,1.807-4.524,1.807C2.999,46.024,0,43.063,0,39.339
					S2.999,32.616,6.723,32.616z"/>
				<path d="M21.717,33.157c0-0.187,0.15-0.354,0.335-0.354h4.544c3.593,0,6.536,2.924,6.536,6.499c0,3.612-2.943,6.536-6.536,6.536
					h-4.544c-0.185,0-0.335-0.168-0.335-0.353V33.157z M26.411,43.082c2.104,0,3.631-1.657,3.631-3.78
					c0-2.104-1.527-3.762-3.631-3.762h-1.788v7.542H26.411z"/>
				<path d="M49.032,32.616c1.862,0,3.24,0.578,4.506,1.732c0.167,0.149,0.167,0.373,0.019,0.521l-1.453,1.508
					c-0.131,0.131-0.335,0.131-0.466,0c-0.688-0.614-1.601-0.95-2.513-0.95c-2.104,0-3.651,1.751-3.651,3.836
					c0,2.068,1.565,3.782,3.669,3.782c0.875,0,1.825-0.317,2.495-0.896c0.13-0.111,0.373-0.111,0.484,0.02l1.453,1.546
					c0.13,0.129,0.111,0.371-0.019,0.502c-1.267,1.23-2.868,1.807-4.525,1.807c-3.725,0-6.723-2.961-6.723-6.686
					S45.307,32.616,49.032,32.616z"/>
			</g>
		</g>
		<g>
			<path fill="#FFFFFF" d="M121.571,41.657l20.884,36.684h-41.708L79.863,41.657H121.571 M122.534,40H77.011l22.773,40h45.521
				L122.534,40L122.534,40z"/>
			<path fill="#FFFFFF" d="M165.206,41.657l-20.863,36.684h-41.708l20.863-36.684H165.206 M168.057,40h-45.522l-22.75,40h45.521
				L168.057,40L168.057,40z"/>
			<path fill="#FFFFFF" d="M144.319,1.658l20.884,36.685h-41.705L102.614,1.658H144.319 M145.285,0H99.763l22.771,40h45.522
				L145.285,0L145.285,0z"/>
			<path fill="#FFFFFF" d="M142.435,1.658l-20.865,36.685H79.862l20.865-36.685H142.435 M145.285,0H99.763L77.011,40h45.523
				L145.285,0L145.285,0z"/>
		</g>
		<g>
			<path fill="#B09366" d="M121.571,41.657l20.884,36.684h-41.708L79.863,41.657H121.571 M122.534,40H77.011l22.773,40h45.521
				L122.534,40L122.534,40z"/>
			<path fill="#C7C7C7" d="M165.206,41.657l-20.863,36.684h-41.708l20.863-36.684H165.206 M168.057,40h-45.522l-22.75,40h45.521
				L168.057,40L168.057,40z"/>
			<path fill="#EBEBEB" d="M144.319,1.658l20.884,36.685h-41.705L102.614,1.658H144.319 M145.285,0H99.763l22.771,40h45.522
				L145.285,0L145.285,0z"/>
			<path fill="#D9C694" d="M142.435,1.658l-20.865,36.685H79.862l20.865-36.685H142.435 M145.285,0H99.763L77.011,40h45.523
				L145.285,0L145.285,0z"/>
		</g>
	</g>
	<g opacity="0.6">
		<path fill="#B09366" d="M121.571,41.658l20.884,36.683h-41.708L79.863,41.658H121.571 M122.534,40H77.011l22.773,40h45.521
			L122.534,40L122.534,40z"/>
		<path fill="#C7C7C7" d="M165.206,41.658l-20.863,36.683h-41.708l20.863-36.683H165.206 M168.057,40h-45.522l-22.75,40h45.521
			L168.057,40L168.057,40z"/>
		<path fill="#EBEBEB" d="M144.319,1.658l20.884,36.685h-41.705L102.614,1.658H144.319 M145.285,0H99.763l22.771,40h45.522
			L145.285,0L145.285,0z"/>
		<path fill="#D9C694" d="M142.435,1.658l-20.865,36.685H79.862l20.865-36.685H142.435 M145.285,0H99.763L77.011,40h45.523
			L145.285,0L145.285,0z"/>
	</g>
</g>
</svg>
