<?xml version="1.0" encoding="utf-8"?>
<!-- Generator: Adobe Illustrator 14.0.0, SVG Export Plug-In . SVG Version: 6.00 Build 43363)  -->
<!DOCTYPE svg PUBLIC "-//W3C//DTD SVG 1.1//EN" "http://www.w3.org/Graphics/SVG/1.1/DTD/svg11.dtd">
<svg version="1.1" id="Layer_1" xmlns="http://www.w3.org/2000/svg" xmlns:xlink="http://www.w3.org/1999/xlink" x="0px" y="0px"
	 width="94.242px" height="82.811px" viewBox="0 0 94.242 82.811" enable-background="new 0 0 94.242 82.811" xml:space="preserve">
<path opacity="0.38" fill="#FFFFFF" d="M70.968-0.092H23.901L0.377,41.267l23.546,41.357H70.99l23.522-41.357L70.968-0.092z
	 M69.603,80.187H25.309L3.151,41.267L25.289,2.345h44.293l22.156,38.921L69.603,80.187z"/>
<polygon fill="#FFFFFF" points="30.48,11.465 64.395,11.465 81.36,41.267 64.41,71.068 30.496,71.068 13.529,41.267 "/>
<g>
	<path fill="#D9C694" d="M59.363,39.15h-9.802v-9.803c0-1.168-0.947-2.115-2.117-2.115c-1.168,0-2.116,0.948-2.116,2.115v9.803
		h-9.802c-1.169,0-2.116,0.948-2.116,2.116c0,1.17,0.948,2.116,2.116,2.116h9.802v9.802c0,1.168,0.948,2.116,2.116,2.116
		c1.17,0,2.117-0.948,2.117-2.116v-9.801h9.802c1.168,0,2.117-0.947,2.117-2.116S60.531,39.15,59.363,39.15z"/>
</g>
</svg>
