<?xml version="1.0" encoding="utf-8"?>
<!-- Generator: Adobe Illustrator 14.0.0, SVG Export Plug-In . SVG Version: 6.00 Build 43363)  -->
<!DOCTYPE svg PUBLIC "-//W3C//DTD SVG 1.1//EN" "http://www.w3.org/Graphics/SVG/1.1/DTD/svg11.dtd">
<svg version="1.1" id="Layer_1" xmlns="http://www.w3.org/2000/svg" xmlns:xlink="http://www.w3.org/1999/xlink" x="0px" y="0px"
	 width="28.102px" height="28.098px" viewBox="33.07 27.355 28.102 28.098" enable-background="new 33.07 27.355 28.102 28.098"
	 xml:space="preserve">
<g>
	<path fill="#FFFFFF" d="M59.052,39.286h-9.813v-9.813c0-1.169-0.948-2.117-2.119-2.117c-1.17,0-2.118,0.948-2.118,2.117v9.813
		h-9.813c-1.17,0-2.119,0.949-2.119,2.118c0,1.171,0.949,2.119,2.119,2.119h9.813v9.812c0,1.169,0.949,2.118,2.118,2.118
		c1.17,0,2.119-0.949,2.119-2.118v-9.812h9.813c1.169,0,2.119-0.947,2.119-2.118C61.171,40.235,60.222,39.286,59.052,39.286z"/>
</g>
</svg>
