<?xml version="1.0" encoding="utf-8"?>
<!-- Generator: Adobe Illustrator 14.0.0, SVG Export Plug-In . SVG Version: 6.00 Build 43363)  -->
<!DOCTYPE svg PUBLIC "-//W3C//DTD SVG 1.1//EN" "http://www.w3.org/Graphics/SVG/1.1/DTD/svg11.dtd">
<svg version="1.1" id="Layer_1" xmlns="http://www.w3.org/2000/svg" xmlns:xlink="http://www.w3.org/1999/xlink" x="0px" y="0px"
	 width="25px" height="25px" viewBox="0 0 25 25" enable-background="new 0 0 25 25" xml:space="preserve">
<path fill="#D9C694" d="M8.333,16.667V0H0v25h25v-8.333H8.333z M2.083,2.083H6.25v2.083H4.167v1.042H6.25v2.083H4.167v1.042H6.25
	v2.083H4.167v1.042H6.25v2.083H4.167v1.041H6.25v2.084H2.083V2.083z M2.083,22.917V18.75H6.25v4.167H2.083z M22.917,22.917H8.333
	V18.75h2.083v2.083h1.042V18.75h2.083v2.083h1.042V18.75h2.084v2.083h1.041V18.75h2.084v2.083h1.041V18.75h2.084V22.917z"/>
</svg>
