<?xml version="1.0" encoding="utf-8"?>
<!-- Generator: Adobe Illustrator 14.0.0, SVG Export Plug-In . SVG Version: 6.00 Build 43363)  -->
<!DOCTYPE svg PUBLIC "-//W3C//DTD SVG 1.1//EN" "http://www.w3.org/Graphics/SVG/1.1/DTD/svg11.dtd">
<svg version="1.1" id="Layer_1" xmlns="http://www.w3.org/2000/svg" xmlns:xlink="http://www.w3.org/1999/xlink" x="0px" y="0px"
	 width="40px" height="40px" viewBox="0 0 40 40" enable-background="new 0 0 40 40" xml:space="preserve">
<path fill="#D9C694" d="M29.484,26.789"/>
<path fill="#D9C694" d="M10.275,26.789"/>
<g>
	<path fill="#D9C694" d="M19.735,3.708c0.048,0,0.098,0.003,0.146,0.003c0.046,0,0.096-0.003,0.144-0.003H19.735z"/>
	<path fill="#D9C694" d="M32.487,8.688c-0.384-1.858-1.589-2.6-3.398-3.348c-1.781-0.724-6.046-1.598-9.208-1.63
		c-3.159,0.032-7.424,0.906-9.21,1.63c-1.802,0.749-3.008,1.49-3.374,3.348l-1.37,10.274v14.179h2.345v2.213
		c-0.008,2.716,4.019,2.716,4.031,0v-2.213h7.431h7.747v2.213c-0.008,2.716,4.018,2.716,4.005,0v-2.213h2.346V18.963L32.487,8.688z
		 M14.149,6.317h5.586h5.876c1.143-0.004,1.143,1.664,0,1.659h-5.876h-5.586C13.012,7.98,13.012,6.312,14.149,6.317z M10.275,28.687
		c-1.061,0.011-1.925-0.842-1.923-1.897c-0.002-1.046,0.862-1.896,1.923-1.896c1.072,0,1.937,0.851,1.924,1.896
		C12.212,27.845,11.347,28.697,10.275,28.687z M19.735,20.044H9.512c-1.011,0.007-1.221-0.702-1.133-1.423l1.054-7.457
		c0.157-0.9,0.47-1.498,1.66-1.501h8.643h8.933c1.196,0.004,1.509,0.601,1.659,1.501l1.055,7.457
		c0.093,0.722-0.118,1.43-1.134,1.423H19.735z M29.484,28.687c-1.064,0.011-1.93-0.842-1.924-1.897
		c-0.006-1.046,0.857-1.896,1.924-1.896c1.068,0,1.932,0.851,1.923,1.896C31.416,27.845,30.553,28.697,29.484,28.687z"/>
</g>
</svg>
