<?xml version="1.0" encoding="utf-8"?>
<!-- Generator: Adobe Illustrator 14.0.0, SVG Export Plug-In . SVG Version: 6.00 Build 43363)  -->
<!DOCTYPE svg PUBLIC "-//W3C//DTD SVG 1.1//EN" "http://www.w3.org/Graphics/SVG/1.1/DTD/svg11.dtd">
<svg version="1.1" id="Layer_1" xmlns="http://www.w3.org/2000/svg" xmlns:xlink="http://www.w3.org/1999/xlink" x="0px" y="0px"
	 width="94.242px" height="82.811px" viewBox="0 0 94.242 82.811" enable-background="new 0 0 94.242 82.811" xml:space="preserve">
<path fill="#D9C694" d="M47.121,18.53c-10.526,0-19.062,8.378-19.062,18.709c0,10.495,8.34,17.667,19.062,27.041
	c10.723-9.373,19.062-16.546,19.062-27.041C66.183,26.908,57.645,18.53,47.121,18.53z M47.121,52.843
	c-8.423,0-15.25-6.828-15.25-15.25s6.827-15.25,15.25-15.25c8.424,0,15.249,6.828,15.249,15.25S55.544,52.843,47.121,52.843z
	 M56.651,34.572l-10.88,10.727l-7.064-6.915l2.696-2.697l4.367,4.218l8.187-8.031L56.651,34.572z"/>
</svg>
