<?xml version="1.0" encoding="utf-8"?>
<!-- Generator: Adobe Illustrator 14.0.0, SVG Export Plug-In . SVG Version: 6.00 Build 43363)  -->
<!DOCTYPE svg PUBLIC "-//W3C//DTD SVG 1.1//EN" "http://www.w3.org/Graphics/SVG/1.1/DTD/svg11.dtd">
<svg version="1.1" id="Layer_1" xmlns="http://www.w3.org/2000/svg" xmlns:xlink="http://www.w3.org/1999/xlink" x="0px" y="0px"
	 width="24px" height="24px" viewBox="0 0 24 24" enable-background="new 0 0 24 24" xml:space="preserve">
<path fill="#D9C694" d="M12.015,7c4.75,0,8.063,3.012,9.504,4.636C20.118,13.473,16.807,17,12.015,17
	c-4.42,0-7.93-3.536-9.478-5.407C4.03,9.946,7.354,7,12.015,7z M12.015,5C4.446,5,0,11.551,0,11.551S4.835,19,12.015,19
	C19.748,19,24,11.551,24,11.551S19.709,5,12.015,5z M12,8c-2.209,0-4,1.792-4,4c0,2.209,1.791,4,4,4s4-1.791,4-4
	C16,9.792,14.209,8,12,8z"/>
</svg>
