<?xml version="1.0" encoding="utf-8"?>
<!-- Generator: Adobe Illustrator 14.0.0, SVG Export Plug-In . SVG Version: 6.00 Build 43363)  -->
<!DOCTYPE svg PUBLIC "-//W3C//DTD SVG 1.1//EN" "http://www.w3.org/Graphics/SVG/1.1/DTD/svg11.dtd">
<svg version="1.1" id="Layer_1" xmlns="http://www.w3.org/2000/svg" xmlns:xlink="http://www.w3.org/1999/xlink" x="0px" y="0px"
	 width="40px" height="40px" viewBox="0 0 40 40" enable-background="new 0 0 40 40" xml:space="preserve">
<path fill="#D9C694" d="M32.621,16.184H29.92v3.338c0.352,0.39,0.573,0.901,0.573,1.468c0,1.216-0.983,2.2-2.197,2.2
	s-2.196-0.983-2.196-2.2c0-0.644,0.282-1.219,0.727-1.621v-3.186H14.193v3.247c0.403,0.397,0.652,0.949,0.652,1.559
	c0,1.216-0.983,2.197-2.197,2.197c-1.213,0-2.198-0.98-2.198-2.197c0-0.609,0.249-1.16,0.65-1.558v-3.25H8.058
	c-0.992,0-1.796,0.807-1.796,1.798v16.317c0,0.994,0.805,1.797,1.796,1.797h24.563c0.993,0,1.797-0.804,1.797-1.797V17.982
	C34.418,16.989,33.614,16.184,32.621,16.184z"/>
<path fill="#D9C694" d="M28.372,21.896c-0.499,0-0.905-0.405-0.905-0.907v-6.333c0-3.836-3.121-6.957-6.956-6.957
	c-3.837,0-6.957,3.121-6.957,6.957v6.333c0,0.5-0.407,0.906-0.905,0.906c-0.5,0-0.906-0.405-0.906-0.906v-6.333
	c0-4.833,3.934-8.768,8.769-8.768c4.833,0,8.766,3.935,8.766,8.768v6.333C29.278,21.491,28.872,21.896,28.372,21.896z"/>
</svg>
