<?xml version="1.0" encoding="utf-8"?>
<!-- Generator: Adobe Illustrator 14.0.0, SVG Export Plug-In . SVG Version: 6.00 Build 43363)  -->
<!DOCTYPE svg PUBLIC "-//W3C//DTD SVG 1.1//EN" "http://www.w3.org/Graphics/SVG/1.1/DTD/svg11.dtd">
<svg version="1.1" id="Layer_1" xmlns="http://www.w3.org/2000/svg" xmlns:xlink="http://www.w3.org/1999/xlink" x="0px" y="0px"
	 width="40px" height="40px" viewBox="0 0 40 40" enable-background="new 0 0 40 40" xml:space="preserve">
<path fill="#D9C694" d="M38.141,33.165c-0.029,0-0.057,0.003-0.086,0.005c-0.011-0.001-0.021-0.003-0.03-0.003h-6.599l-0.116-4.003
	l5.229,0.009c0.946,0.008,1.25-0.124,1.266-0.748c0.01-0.396-0.491-0.925-0.491-0.925s-1.811-2.171-3.092-3.481h1.127
	c0.951,0.007,1.251-0.124,1.267-0.749c0.012-0.395-0.488-0.924-0.488-0.924s-1.673-1.537-2.941-2.821l0.034-0.166l1.08,0.011
	c0.949,0.007,1.25-0.125,1.269-0.749c0.009-0.394-0.495-0.925-0.495-0.925s-3.044-3.052-4.027-4.249
	c-0.148-0.18-0.292-0.313-0.424-0.414v-0.01c0,0-0.24-0.261-0.636-0.245c-0.395-0.017-0.633,0.245-0.633,0.245v0.01
	c-0.133,0.1-0.274,0.234-0.422,0.414c-0.986,1.197-4.031,4.249-4.031,4.249s-0.757,0.531-0.745,0.925
	c0.016,0.625,0.569,0.756,1.52,0.749l1.078-0.011l0.036,0.166c-1.266,1.284-2.937,2.821-2.937,2.821s-0.506,0.529-0.494,0.924
	c0.017,0.625,0.319,0.756,1.269,0.749h1.126c-0.393,0.404-0.838,0.841-1.264,1.251c0.354,0.331,0.576,0.535,0.582,0.542l0.025,0.023
	l0.025,0.026c2.097,2.099,0.673,3.307,0.673,3.307l2.871-0.004l-0.115,4.002H14.88l-0.168-4.028l8.221,0.015
	c1.473,0.013,1.938-0.193,1.964-1.161c0.017-0.611-0.763-1.435-0.763-1.435s-2.81-2.582-4.796-4.615h1.751
	c1.473,0.012,1.938-0.193,1.966-1.16c0.013-0.612-0.765-1.437-0.765-1.437s-2.594-2.383-4.559-4.374l0.055-0.258l1.675,0.017
	c1.473,0.013,1.94-0.192,1.966-1.161c0.016-0.612-0.764-1.435-0.764-1.435s-4.725-4.595-6.254-6.453
	c-0.229-0.278-0.448-0.486-0.656-0.642V5.025c0,0-0.372-0.407-0.984-0.38c-0.611-0.026-0.983,0.38-0.983,0.38v0.014
	c-0.207,0.156-0.427,0.364-0.656,0.642c-1.53,1.857-6.255,6.454-6.255,6.454s-0.779,0.823-0.763,1.435
	c0.026,0.969,0.493,1.173,1.965,1.162l1.675-0.017l0.056,0.258c-1.967,1.991-4.56,4.374-4.56,4.374s-0.78,0.824-0.764,1.437
	c0.026,0.967,0.493,1.172,1.966,1.159H6.2c-1.987,2.033-4.796,4.615-4.796,4.615s-0.779,0.824-0.763,1.435
	c0.024,0.969,0.492,1.174,1.965,1.161l8.183-0.015l-0.168,4.029H1.947c-0.011,0-0.02,0.002-0.03,0.003
	c-0.029-0.002-0.057-0.005-0.086-0.005c-0.841,0-1.524,0.683-1.524,1.524s0.683,1.523,1.524,1.523c0.046,0,0.09-0.003,0.134-0.007
	h36.042c0.044,0.004,0.089,0.007,0.134,0.007c0.842,0,1.523-0.682,1.523-1.523S38.982,33.165,38.141,33.165z"/>
</svg>
